<?xml version="1.0" standalone="no"?><!DOCTYPE svg PUBLIC "-//W3C//DTD SVG 1.1//EN" "http://www.w3.org/Graphics/SVG/1.1/DTD/svg11.dtd"><svg t="1533348550993" class="icon" style="" viewBox="0 0 1024 1024" version="1.1" xmlns="http://www.w3.org/2000/svg" p-id="1977" xmlns:xlink="http://www.w3.org/1999/xlink" width="32" height="32"><defs><style type="text/css"></style></defs><path d="M870.4 166.4H153.6c-49.408 0-89.6 40.192-89.6 89.6v90.8032c0 14.3872 8.0128 27.5456 20.7872 34.1248l409.6 211.0464a38.4 38.4 0 0 0 35.1744 0l257.152-132.48a38.4 38.4 0 1 0-35.1744-68.2752L512 514.6368 140.8 323.3792V256c0-6.9376 5.8624-12.8 12.8-12.8h716.8c6.9376 0 12.8 5.8624 12.8 12.8v512c0 6.9376-5.8624 12.8-12.8 12.8H153.6a12.9792 12.9792 0 0 1-12.8-12.8v-233.8816a38.4 38.4 0 1 0-76.8 0V768c0 49.408 40.192 89.6 89.6 89.6h716.8c49.408 0 89.6-40.192 89.6-89.6V256c0-49.408-40.192-89.6-89.6-89.6z" fill="#8a8a8a" p-id="1978"></path></svg>