<?xml version="1.0" standalone="no"?><!DOCTYPE svg PUBLIC "-//W3C//DTD SVG 1.1//EN" "http://www.w3.org/Graphics/SVG/1.1/DTD/svg11.dtd"><svg t="1533263461038" class="icon" style="" viewBox="0 0 1024 1024" version="1.1" xmlns="http://www.w3.org/2000/svg" p-id="4062" xmlns:xlink="http://www.w3.org/1999/xlink" width="32" height="32"><defs><style type="text/css"></style></defs><path d="M737.32128 142.264121c-87.171362 0-162.578796 22.773679-225.540779 134.118604-47.548946-94.462418-135.072325-135.281079-219.141022-137.445372l0-0.077771-5.330402 0c-0.034792 0-0.069585-0.001023-0.105401-0.001023l0 0.001023 0 0 0-0.001023c-0.025583 0-0.052189 0.001023-0.077771 0.001023l-3.958148 0 0 0.050142c-113.074312 2.165316-218.990596 95.248318-218.969107 265.001513 0 294.743908 448.282816 481.231229 448.282816 481.231229s447.319885-186.487322 447.319885-483.048621C959.818747 231.458559 851.370803 142.264121 737.32128 142.264121zM690.644191 694.155666c-69.032236 52.048423-139.222855 89.232301-178.221054 108.222817-39.11281-18.990516-109.507066-56.136531-178.731684-108.073414-87.417979-65.552995-191.628412-169.160701-191.628412-290.393833 0-61.809741 16.908088-112.799042 48.927339-147.410328 24.705682-26.710338 57.290821-41.863457 92.176352-42.940998l0 0.203638 9.471722 0c120.94149 2.950192 219.370243 192.793958 219.370243 192.793958s90.361007-182.169993 225.312582-189.662641c36.731576-2.039449 71.019497 14.753005 96.383164 41.495066 31.549553 33.251312 48.230468 82.954317 48.230468 143.703913C881.934912 524.350283 777.910721 628.411313 690.644191 694.155666z" p-id="4063" fill="#8a8a8a"></path></svg>