<?xml version="1.0" standalone="no"?><!DOCTYPE svg PUBLIC "-//W3C//DTD SVG 1.1//EN" "http://www.w3.org/Graphics/SVG/1.1/DTD/svg11.dtd"><svg t="1533349733947" class="icon" style="" viewBox="0 0 1024 1024" version="1.1" xmlns="http://www.w3.org/2000/svg" p-id="3496" xmlns:xlink="http://www.w3.org/1999/xlink" width="32" height="32"><defs><style type="text/css"></style></defs><path d="M954.496 695.047l-85.84-320.361c-19.154-71.482-83.806-118.616-154.449-118.619l-0.462 0.001-176.746-0.03L537 256v-33c0-24.813 20.187-45 45-45 13.808 0 25-11.193 25-25s-11.192-25-25-25c-52.383 0-95 42.617-95 95v33l0.001 0.03L309 256c-70.32 0.368-134.794 48.293-153.873 119.496l-85.623 319.55c-22.871 85.355 27.783 173.088 113.137 195.959 13.868 3.716 27.806 5.492 41.511 5.492 70.647 0 135.293-47.142 154.448-118.629l10.133-37.848c6.063-20.788 25.292-36.02 48.012-36.02h150.988c22.72 0 41.949 15.232 48.012 36.021l9.655 37.848c19.153 71.481 83.806 118.629 154.447 118.629 13.71 0 27.638-1.774 41.511-5.492 85.356-22.871 136.009-110.605 113.138-195.959z m-59.285 96.411c-14.691 25.445-38.412 43.647-66.793 51.252-9.38 2.513-18.993 3.788-28.57 3.788-49.538 0-93.117-33.416-106.078-81.297l-9.576-37.538-0.21-0.823-0.238-0.816c-5.937-20.359-18.527-38.674-35.45-51.574-17.551-13.379-38.493-20.45-60.562-20.45H436.745c-22.069 0-43.012 7.071-60.563 20.449-16.923 12.899-29.513 31.215-35.45 51.574l-0.155 0.532-0.143 0.535-10.131 37.838c-12.869 48.027-56.52 81.57-106.151 81.57-9.577 0-19.19-1.275-28.571-3.788-28.381-7.605-52.102-25.806-66.793-51.252-14.691-25.446-18.594-55.089-10.989-83.47l85.623-319.55c6.402-23.894 20.182-44.494 39.849-59.574 19.035-14.595 42.42-22.712 65.864-22.863l404.6 0.068h0.469c49.635 0.001 93.287 33.54 106.154 81.56l85.84 320.361c7.607 28.379 3.704 58.022-10.987 83.468z" p-id="3497" fill="#8a8a8a"></path><path d="M321 402c-60.751 0-110 49.249-110 110s49.249 110 110 110 110-49.249 110-110-49.249-110-110-110z m0 170c-33.084 0-60-26.916-60-60s26.916-60 60-60 60 26.916 60 60-26.916 60-60 60z" p-id="3498" fill="#8a8a8a"></path><path d="M704 437m-35 0a35 35 0 1 0 70 0 35 35 0 1 0-70 0Z" p-id="3499" fill="#8a8a8a"></path><path d="M704 587m-35 0a35 35 0 1 0 70 0 35 35 0 1 0-70 0Z" p-id="3500" fill="#8a8a8a"></path><path d="M779 512m-35 0a35 35 0 1 0 70 0 35 35 0 1 0-70 0Z" p-id="3501" fill="#8a8a8a"></path><path d="M629 512m-35 0a35 35 0 1 0 70 0 35 35 0 1 0-70 0Z" p-id="3502" fill="#8a8a8a"></path></svg>