<?xml version="1.0" standalone="no"?><!DOCTYPE svg PUBLIC "-//W3C//DTD SVG 1.1//EN" "http://www.w3.org/Graphics/SVG/1.1/DTD/svg11.dtd"><svg t="1533172027828" class="icon" style="" viewBox="0 0 1024 1024" version="1.1" xmlns="http://www.w3.org/2000/svg" p-id="3478" xmlns:xlink="http://www.w3.org/1999/xlink" width="32" height="32"><defs><style type="text/css"></style></defs><path d="M896 416v-160c0-19.2-12.8-32-32-32h-160v32c0 19.2-12.8 32-32 32s-32-12.8-32-32v-32h-256v32c0 19.2-12.8 32-32 32s-32-12.8-32-32v-32h-160c-19.2 0-32 12.8-32 32v160h768z m0 64h-768v288c0 19.2 12.8 32 32 32h704c19.2 0 32-12.8 32-32v-288z m-192-320h160c54.4 0 96 41.6 96 96v512c0 54.4-41.6 96-96 96h-704c-54.4 0-96-41.6-96-96v-512c0-54.4 41.6-96 96-96h160v-32c0-19.2 12.8-32 32-32s32 12.8 32 32v32h256v-32c0-19.2 12.8-32 32-32s32 12.8 32 32v32z" p-id="3479" fill="#ffffff"></path></svg>