<?xml version="1.0" standalone="no"?><!DOCTYPE svg PUBLIC "-//W3C//DTD SVG 1.1//EN" "http://www.w3.org/Graphics/SVG/1.1/DTD/svg11.dtd"><svg t="1533196297214" class="icon" style="" viewBox="0 0 1024 1024" version="1.1" xmlns="http://www.w3.org/2000/svg" p-id="4051" xmlns:xlink="http://www.w3.org/1999/xlink" width="32" height="32"><defs><style type="text/css"></style></defs><path d="M844.8 870.4H179.2c-15.36 0-25.6 10.24-25.6 25.6s10.24 25.6 25.6 25.6h665.6c15.36 0 25.6-10.24 25.6-25.6s-10.24-25.6-25.6-25.6zM793.6 204.8l-332.8 51.2c-15.36 0-25.6 10.24-25.6 25.6v217.6c-38.4-17.92-94.72-15.36-145.92 12.8-71.68 38.4-104.96 110.08-74.24 161.28 30.72 51.2 122.88 58.88 194.56 20.48 56.32-30.72 79.36-84.48 76.8-128V304.64l281.6-43.52v186.88c-38.4-17.92-94.72-15.36-145.92 12.8-71.68 38.4-104.96 110.08-74.24 161.28 30.72 51.2 122.88 58.88 194.56 20.48 56.32-30.72 79.36-84.48 76.8-128v-281.6c0-17.92-10.24-28.16-25.6-28.16zM386.56 650.24c-43.52 25.6-99.84 20.48-120.32-5.12-20.48-25.6-2.56-66.56 43.52-92.16 46.08-23.04 87.04-23.04 112.64-2.56 30.72 25.6 2.56 79.36-35.84 99.84z m332.8-51.2c-43.52 25.6-99.84 20.48-120.32-5.12-20.48-25.6-2.56-66.56 43.52-92.16 46.08-23.04 84.48-23.04 112.64-2.56 33.28 25.6 5.12 76.8-35.84 99.84zM819.2 102.4H204.8C148.48 102.4 102.4 148.48 102.4 204.8v512c0 56.32 46.08 102.4 102.4 102.4h614.4c56.32 0 102.4-46.08 102.4-102.4V204.8c0-56.32-46.08-102.4-102.4-102.4z m51.2 614.4c0 28.16-23.04 51.2-51.2 51.2H204.8c-28.16 0-51.2-23.04-51.2-51.2V204.8c0-28.16 23.04-51.2 51.2-51.2h614.4c28.16 0 51.2 23.04 51.2 51.2v512z" p-id="4052" fill="#dc143c"></path></svg>